<?xml version="1.0" encoding="UTF-8" standalone="no"?>
<svg
   xmlns:dc="http://purl.org/dc/elements/1.1/"
   xmlns:cc="http://creativecommons.org/ns#"
   xmlns:rdf="http://www.w3.org/1999/02/22-rdf-syntax-ns#"
   xmlns:svg="http://www.w3.org/2000/svg"
   xmlns="http://www.w3.org/2000/svg"
   xmlns:sodipodi="http://sodipodi.sourceforge.net/DTD/sodipodi-0.dtd"
   xmlns:inkscape="http://www.inkscape.org/namespaces/inkscape"
   version="1.1"
   width="76"
   height="76"
   viewBox="0 0 76.00 76.00"
   enable-background="new 0 0 76.00 76.00"
   xml:space="preserve"
   id="svg4"
   sodipodi:docname="appbar.microphone .icon.svg"
   inkscape:version="0.92.4 (5da689c313, 2019-01-14)"><metadata
   id="metadata10"><rdf:RDF><cc:Work
       rdf:about=""><dc:format>image/svg+xml</dc:format><dc:type
         rdf:resource="http://purl.org/dc/dcmitype/StillImage" /></cc:Work></rdf:RDF></metadata><defs
   id="defs8" /><sodipodi:namedview
   pagecolor="#ffffff"
   bordercolor="#666666"
   borderopacity="1"
   objecttolerance="10"
   gridtolerance="10"
   guidetolerance="10"
   inkscape:pageopacity="0"
   inkscape:pageshadow="2"
   inkscape:window-width="1920"
   inkscape:window-height="1017"
   id="namedview6"
   showgrid="false"
   inkscape:zoom="3.1052632"
   inkscape:cx="-14.330508"
   inkscape:cy="38"
   inkscape:window-x="-8"
   inkscape:window-y="-8"
   inkscape:window-maximized="1"
   inkscape:current-layer="svg4" />
	
<rect
   style="fill:#00857f;fill-opacity:0.94117647;stroke-width:1.06310618"
   id="rect4520"
   width="76"
   height="76"
   x="0"
   y="0" /><path
   inkscape:connector-curvature="0"
   style="fill:#ffffff;fill-opacity:1;stroke-width:0.2;stroke-linejoin:round"
   d="m 38,19.00005 c 3.4978,0 6.3333,2.8355 6.3333,6.3333 v 11.0833 c 0,3.4978 -2.8355,6.3333 -6.3333,6.3333 -3.4978,0 -6.3334,-2.8355 -6.3334,-6.3333 v -11.0833 c 0,-3.4978 2.8356,-6.3333 6.3334,-6.3333 z m -7.9167,33.2499 h 4.75 v -1.9364 C 28.4874,48.87355 23.75,43.19835 23.75,36.41665 v -4.75 h 4.75 v 4.75 c 0,5.2467 4.2533,9.5 9.5,9.5 5.2467,0 9.5,-4.2533 9.5,-9.5 v -4.75 h 4.75 v 4.75 c 0,6.7817 -4.7374,12.4569 -11.0833,13.8969 v 1.9364 h 4.75 v 4.75 H 30.0833 Z"
   id="path2" /></svg>